<mxfile host="app.diagrams.net" agent="Mozilla/5.0 (Windows NT 10.0; Win64; x64) AppleWebKit/537.36 (KHTML, like Gecko) Chrome/127.0.0.0 Safari/537.36" version="24.7.6">
  <diagram name="PÃ¡gina-1" id="OF_5TvAGyf2ryyTDgMmn">
    <mxGraphModel dx="1762" dy="777" grid="1" gridSize="10" guides="1" tooltips="1" connect="1" arrows="1" fold="1" page="1" pageScale="1" pageWidth="827" pageHeight="1169" math="0" shadow="0">
      <root>
        <mxCell id="0" />
        <mxCell id="1" parent="0" />
        <mxCell id="SNIxnUnF9VFZRmYHE7ty-3" value="VPC" style="sketch=0;outlineConnect=0;gradientColor=none;html=1;whiteSpace=wrap;fontSize=12;fontStyle=0;shape=mxgraph.aws4.group;grIcon=mxgraph.aws4.group_vpc;strokeColor=#879196;fillColor=none;verticalAlign=top;align=left;spacingLeft=30;fontColor=#879196;dashed=0;" vertex="1" parent="1">
          <mxGeometry x="30" y="310" width="950" height="590" as="geometry" />
        </mxCell>
        <mxCell id="SNIxnUnF9VFZRmYHE7ty-7" value="Public subnet" style="points=[[0,0],[0.25,0],[0.5,0],[0.75,0],[1,0],[1,0.25],[1,0.5],[1,0.75],[1,1],[0.75,1],[0.5,1],[0.25,1],[0,1],[0,0.75],[0,0.5],[0,0.25]];outlineConnect=0;gradientColor=none;html=1;whiteSpace=wrap;fontSize=12;fontStyle=0;container=1;pointerEvents=0;collapsible=0;recursiveResize=0;shape=mxgraph.aws4.group;grIcon=mxgraph.aws4.group_security_group;grStroke=0;strokeColor=#7AA116;fillColor=#F2F6E8;verticalAlign=top;align=left;spacingLeft=30;fontColor=#248814;dashed=0;" vertex="1" parent="1">
          <mxGeometry x="80" y="360" width="160" height="500" as="geometry" />
        </mxCell>
        <mxCell id="SNIxnUnF9VFZRmYHE7ty-10" value="Application Load&amp;nbsp;&lt;div&gt;Balancer&lt;/div&gt;" style="sketch=0;outlineConnect=0;fontColor=#232F3E;gradientColor=none;fillColor=#8C4FFF;strokeColor=none;dashed=0;verticalLabelPosition=bottom;verticalAlign=top;align=center;html=1;fontSize=12;fontStyle=0;aspect=fixed;pointerEvents=1;shape=mxgraph.aws4.application_load_balancer;" vertex="1" parent="SNIxnUnF9VFZRmYHE7ty-7">
          <mxGeometry x="40" y="130" width="78" height="78" as="geometry" />
        </mxCell>
        <mxCell id="SNIxnUnF9VFZRmYHE7ty-9" value="Private subnet" style="points=[[0,0],[0.25,0],[0.5,0],[0.75,0],[1,0],[1,0.25],[1,0.5],[1,0.75],[1,1],[0.75,1],[0.5,1],[0.25,1],[0,1],[0,0.75],[0,0.5],[0,0.25]];outlineConnect=0;gradientColor=none;html=1;whiteSpace=wrap;fontSize=12;fontStyle=0;container=1;pointerEvents=0;collapsible=0;recursiveResize=0;shape=mxgraph.aws4.group;grIcon=mxgraph.aws4.group_security_group;grStroke=0;strokeColor=#00A4A6;fillColor=#E6F6F7;verticalAlign=top;align=left;spacingLeft=30;fontColor=#147EBA;dashed=0;" vertex="1" parent="1">
          <mxGeometry x="320" y="360" width="600" height="500" as="geometry" />
        </mxCell>
        <mxCell id="SNIxnUnF9VFZRmYHE7ty-26" value="DAGs Bucket" style="outlineConnect=0;dashed=0;verticalLabelPosition=bottom;verticalAlign=top;align=center;html=1;shape=mxgraph.aws3.bucket_with_objects;fillColor=#E05243;gradientColor=none;" vertex="1" parent="SNIxnUnF9VFZRmYHE7ty-9">
          <mxGeometry x="90" y="389.75" width="60" height="61.5" as="geometry" />
        </mxCell>
        <mxCell id="SNIxnUnF9VFZRmYHE7ty-29" value="Airflow Log&amp;nbsp;&lt;div&gt;Bucket&lt;/div&gt;" style="outlineConnect=0;dashed=0;verticalLabelPosition=bottom;verticalAlign=top;align=center;html=1;shape=mxgraph.aws3.bucket_with_objects;fillColor=#E05243;gradientColor=none;" vertex="1" parent="SNIxnUnF9VFZRmYHE7ty-9">
          <mxGeometry x="205" y="389.75" width="60" height="61.5" as="geometry" />
        </mxCell>
        <mxCell id="SNIxnUnF9VFZRmYHE7ty-30" value="RDS Postgres" style="outlineConnect=0;dashed=0;verticalLabelPosition=bottom;verticalAlign=top;align=center;html=1;shape=mxgraph.aws3.rds;fillColor=#2E73B8;gradientColor=none;" vertex="1" parent="SNIxnUnF9VFZRmYHE7ty-9">
          <mxGeometry x="313" y="380" width="72" height="81" as="geometry" />
        </mxCell>
        <mxCell id="SNIxnUnF9VFZRmYHE7ty-32" value="Elasticache" style="outlineConnect=0;dashed=0;verticalLabelPosition=bottom;verticalAlign=top;align=center;html=1;shape=mxgraph.aws3.elasticache;fillColor=#2E73B8;gradientColor=none;" vertex="1" parent="SNIxnUnF9VFZRmYHE7ty-9">
          <mxGeometry x="430" y="380" width="67.5" height="81" as="geometry" />
        </mxCell>
        <mxCell id="SNIxnUnF9VFZRmYHE7ty-12" value="" style="rounded=0;whiteSpace=wrap;html=1;" vertex="1" parent="1">
          <mxGeometry x="360" y="400" width="500" height="310" as="geometry" />
        </mxCell>
        <mxCell id="SNIxnUnF9VFZRmYHE7ty-14" value="" style="group" vertex="1" connectable="0" parent="1">
          <mxGeometry x="360" y="400" width="113" height="50" as="geometry" />
        </mxCell>
        <mxCell id="SNIxnUnF9VFZRmYHE7ty-11" value="" style="sketch=0;points=[[0,0,0],[0.25,0,0],[0.5,0,0],[0.75,0,0],[1,0,0],[0,1,0],[0.25,1,0],[0.5,1,0],[0.75,1,0],[1,1,0],[0,0.25,0],[0,0.5,0],[0,0.75,0],[1,0.25,0],[1,0.5,0],[1,0.75,0]];outlineConnect=0;fontColor=#232F3E;fillColor=#ED7100;strokeColor=#ffffff;dashed=0;verticalLabelPosition=bottom;verticalAlign=top;align=center;html=1;fontSize=12;fontStyle=0;aspect=fixed;shape=mxgraph.aws4.resourceIcon;resIcon=mxgraph.aws4.eks;" vertex="1" parent="SNIxnUnF9VFZRmYHE7ty-14">
          <mxGeometry width="50" height="50" as="geometry" />
        </mxCell>
        <mxCell id="SNIxnUnF9VFZRmYHE7ty-13" value="EKS" style="text;html=1;align=center;verticalAlign=middle;whiteSpace=wrap;rounded=0;" vertex="1" parent="SNIxnUnF9VFZRmYHE7ty-14">
          <mxGeometry x="53" y="10" width="60" height="30" as="geometry" />
        </mxCell>
        <mxCell id="SNIxnUnF9VFZRmYHE7ty-15" value="" style="rounded=0;whiteSpace=wrap;html=1;" vertex="1" parent="1">
          <mxGeometry x="410" y="470" width="390" height="200" as="geometry" />
        </mxCell>
        <mxCell id="SNIxnUnF9VFZRmYHE7ty-16" value="Node Group" style="text;html=1;align=center;verticalAlign=middle;whiteSpace=wrap;rounded=0;" vertex="1" parent="1">
          <mxGeometry x="413" y="470" width="97" height="30" as="geometry" />
        </mxCell>
        <mxCell id="SNIxnUnF9VFZRmYHE7ty-17" value="" style="rounded=0;whiteSpace=wrap;html=1;" vertex="1" parent="1">
          <mxGeometry x="450" y="500" width="310" height="140" as="geometry" />
        </mxCell>
        <mxCell id="SNIxnUnF9VFZRmYHE7ty-18" value="Airflow" style="text;html=1;align=center;verticalAlign=middle;whiteSpace=wrap;rounded=0;" vertex="1" parent="1">
          <mxGeometry x="450" y="500" width="97" height="30" as="geometry" />
        </mxCell>
        <mxCell id="SNIxnUnF9VFZRmYHE7ty-19" value="Ingress" style="rounded=0;whiteSpace=wrap;html=1;" vertex="1" parent="1">
          <mxGeometry x="480" y="530" width="70" height="40" as="geometry" />
        </mxCell>
        <mxCell id="SNIxnUnF9VFZRmYHE7ty-20" value="airflow-webservice" style="rounded=0;whiteSpace=wrap;html=1;" vertex="1" parent="1">
          <mxGeometry x="570" y="530" width="70" height="40" as="geometry" />
        </mxCell>
        <mxCell id="SNIxnUnF9VFZRmYHE7ty-21" value="airflow-scheduler" style="rounded=0;whiteSpace=wrap;html=1;" vertex="1" parent="1">
          <mxGeometry x="660" y="530" width="70" height="40" as="geometry" />
        </mxCell>
        <mxCell id="SNIxnUnF9VFZRmYHE7ty-22" value="airflow-triggererer" style="rounded=0;whiteSpace=wrap;html=1;" vertex="1" parent="1">
          <mxGeometry x="660" y="580" width="70" height="40" as="geometry" />
        </mxCell>
        <mxCell id="SNIxnUnF9VFZRmYHE7ty-23" value="statsd" style="rounded=0;whiteSpace=wrap;html=1;" vertex="1" parent="1">
          <mxGeometry x="480" y="580" width="70" height="40" as="geometry" />
        </mxCell>
        <mxCell id="SNIxnUnF9VFZRmYHE7ty-24" value="airflow-worker" style="rounded=0;whiteSpace=wrap;html=1;" vertex="1" parent="1">
          <mxGeometry x="570" y="580" width="70" height="40" as="geometry" />
        </mxCell>
        <mxCell id="SNIxnUnF9VFZRmYHE7ty-25" style="edgeStyle=orthogonalEdgeStyle;rounded=0;orthogonalLoop=1;jettySize=auto;html=1;entryX=0;entryY=0.5;entryDx=0;entryDy=0;" edge="1" parent="1" source="SNIxnUnF9VFZRmYHE7ty-10" target="SNIxnUnF9VFZRmYHE7ty-19">
          <mxGeometry relative="1" as="geometry">
            <Array as="points">
              <mxPoint x="290" y="529" />
              <mxPoint x="290" y="550" />
            </Array>
          </mxGeometry>
        </mxCell>
      </root>
    </mxGraphModel>
  </diagram>
</mxfile>
